# xmcd
#
# Track frame offsets: 
#        150
#        12340
#        30142
#        39697
#        45075
#        53062
#        67662
#        77502
#        89537
#        100915
#        109029
#        114780
#        127440
#        134035
#        146310
#        160997
#        174334
#        184462
#        195510
#        208792
#        218220
#        226785
#        239942
#        248817
#        261462
#        270540
#        280747
#        288952
#        299340
#        312517
#        316562
#        332055
#
# Disc length: 4621 seconds
#
# Revision: 4
# Processed by: cddbd v1.5.2PL0 Copyright (c) Steve Scherf et al.
# Submitted via: ExactAudioCopy v0.95a4
#
DISCID=d0120b20
DTITLE=Flatt and Scruggs - Flatt and Scruggs At Carnegie Hall! The Complet
DTITLE=e Concert
DYEAR=1962
DGENRE=Bluegrass
TTITLE0=Salty Dog Blues
TTITLE1=Durham's Reel
TTITLE2=Down The Road
TTITLE3=Rainbow
TTITLE4=Big Ball In Brooklyn
TTITLE5=Flint Hill Special
TTITLE6=Dig A Hole In The Meadow
TTITLE7=I Hung My Head And Cried
TTITLE8=Hot Corn, Cold Corn
TTITLE9=Little Darlin' Pal Of Mine
TTITLE10=You Can't Stop Me From Dreaming
TTITLE11=Footprints In The Snow
TTITLE12=The Martha White Theme
TTITLE13=I Wonder Where You Are Tonight
TTITLE14=Old MacDonald Had A Farm
TTITLE15=He Will Set Your Field On Fire
TTITLE16=Let The Church Roll On
TTITLE17=Wildwood Flower
TTITLE18=Hear That Whistle Blow (A Hundred Miles)
TTITLE19=Fiddle And Banjo
TTITLE20=Old Leather Britches
TTITLE21=Ballad Of Jed Clampett
TTITLE22=Yonder Stands Little Maggie
TTITLE23=Reuben
TTITLE24=Mama Blues
TTITLE25=I Know What It Means To Be Lonesome
TTITLE26=Foggy Mountain Rock
TTITLE27=Take This Hammer
TTITLE28=McKinley's Gone
TTITLE29=Rolling In My Sweet Baby's Arms
TTITLE30=Gotta Travel On
TTITLE31=Mountain Dew
EXTD=
EXTT0=
EXTT1=
EXTT2=
EXTT3=
EXTT4=
EXTT5=
EXTT6=
EXTT7=
EXTT8=
EXTT9=
EXTT10=
EXTT11=
EXTT12=
EXTT13=
EXTT14=
EXTT15=
EXTT16=
EXTT17=
EXTT18=
EXTT19=
EXTT20=
EXTT21=
EXTT22=
EXTT23=
EXTT24=
EXTT25=
EXTT26=
EXTT27=
EXTT28=
EXTT29=
EXTT30=
EXTT31=
PLAYORDER=
